<svg xmlns="http://www.w3.org/2000/svg" viewBox="0 0 480 640" width="480" height="640">
  <!--
    InfiniTree full logo — glyph + wordmark. Same drawing as
    icon-app.svg, but on a transparent canvas (no rounded-square bg)
    so it can sit over any page background. The wordmark uses the deep
    navy from the brand palette so it carries weight without competing
    with the gradient glyph.
  -->
  <defs>
    <linearGradient id="logoGrad" x1="0.5" y1="0" x2="0.5" y2="1">
      <stop offset="0%"  stop-color="#4ED88E"/>
      <stop offset="40%" stop-color="#1FBEC4"/>
      <stop offset="100%" stop-color="#1A7AC9"/>
    </linearGradient>
  </defs>

  <g transform="translate(240 280)"
     fill="none"
     stroke="url(#logoGrad)"
     stroke-linecap="round"
     stroke-linejoin="round">

    <!-- Canopy stem + branches -->
    <path d="M 0 -30 C -2 -80, -3 -130, 0 -180" stroke-width="9"/>
    <path d="M -2 -50 C -25 -80, -45 -110, -55 -150 C -58 -165, -50 -175, -42 -178" stroke-width="6"/>
    <path d="M  2 -50 C  25 -80,  45 -110,  55 -150 C  58 -165,  50 -175,  42 -178" stroke-width="6"/>
    <path d="M -4 -40 C -50 -65, -90 -85, -118 -120 C -125 -132, -118 -145, -108 -147" stroke-width="5"/>
    <path d="M  4 -40 C  50 -65,  90 -85,  118 -120 C  125 -132,  118 -145,  108 -147" stroke-width="5"/>
    <path d="M -6 -30 C -65 -45, -125 -55, -160 -80 C -170 -88, -165 -100, -155 -100" stroke-width="4"/>
    <path d="M  6 -30 C  65 -45,  125 -55,  160 -80 C  170 -88,  165 -100,  155 -100" stroke-width="4"/>
    <path d="M  0 -130 C -15 -150, -22 -165, -25 -180" stroke-width="4"/>
    <path d="M  0 -130 C  15 -150,  22 -165,  25 -180" stroke-width="4"/>
    <path d="M  0 -160 C -8 -180, -12 -195, -10 -208" stroke-width="3"/>
    <path d="M  0 -160 C  8 -180,  12 -195,  10 -208" stroke-width="3"/>

    <!-- Leaf tips -->
    <g fill="url(#logoGrad)" stroke="none">
      <ellipse cx="0"    cy="-205" rx="7"  ry="13"/>
      <ellipse cx="-12"  cy="-205" rx="6"  ry="11" transform="rotate(-15 -12 -205)"/>
      <ellipse cx="12"   cy="-205" rx="6"  ry="11" transform="rotate(15 12 -205)"/>
      <ellipse cx="-27"  cy="-185" rx="6"  ry="11" transform="rotate(-30 -27 -185)"/>
      <ellipse cx="27"   cy="-185" rx="6"  ry="11" transform="rotate(30 27 -185)"/>
      <ellipse cx="-45"  cy="-180" rx="7"  ry="12" transform="rotate(-35 -45 -180)"/>
      <ellipse cx="45"   cy="-180" rx="7"  ry="12" transform="rotate(35 45 -180)"/>
      <ellipse cx="-70"  cy="-160" rx="7"  ry="12" transform="rotate(-50 -70 -160)"/>
      <ellipse cx="70"   cy="-160" rx="7"  ry="12" transform="rotate(50 70 -160)"/>
      <ellipse cx="-105" cy="-150" rx="7"  ry="12" transform="rotate(-60 -105 -150)"/>
      <ellipse cx="105"  cy="-150" rx="7"  ry="12" transform="rotate(60 105 -150)"/>
      <ellipse cx="-130" cy="-125" rx="7"  ry="12" transform="rotate(-75 -130 -125)"/>
      <ellipse cx="130"  cy="-125" rx="7"  ry="12" transform="rotate(75 130 -125)"/>
      <ellipse cx="-155" cy="-100" rx="6"  ry="10" transform="rotate(-85 -155 -100)"/>
      <ellipse cx="155"  cy="-100" rx="6"  ry="10" transform="rotate(85 155 -100)"/>
    </g>

    <!-- Infinity trunk -->
    <path d="
      M 0 -30
      C -50 -30, -85 -10, -85 15
      C -85 40, -50 55, -10 35
      C 0 30, 0 30, 10 35
      C 50 55, 85 40, 85 15
      C 85 -10, 50 -30, 0 -30 Z
    " stroke-width="9"/>
    <path d="M -10 -15 C -50 -15, -72 0, -72 16 C -72 33, -50 42, -15 28" stroke-width="3" stroke-opacity="0.55"/>
    <path d="M  10 -15 C  50 -15,  72 0,  72 16 C  72 33,  50 42,  15 28" stroke-width="3" stroke-opacity="0.55"/>

    <!-- Roots -->
    <path d="M 0 55 C -2 100, -3 140, 0 175" stroke-width="7"/>
    <path d="M -2 70 C -22 95, -36 120, -42 150 C -45 162, -40 170, -35 170" stroke-width="5"/>
    <path d="M  2 70 C  22 95,  36 120,  42 150 C  45 162,  40 170,  35 170" stroke-width="5"/>
    <path d="M -4 65 C -45 85, -75 110, -90 135 C -95 144, -90 152, -82 152" stroke-width="4"/>
    <path d="M  4 65 C  45 85,  75 110,  90 135 C  95 144,  90 152,  82 152" stroke-width="4"/>
    <path d="M -6 60 C -60 70, -110 80, -135 95 C -142 100, -138 108, -130 108" stroke-width="3"/>
    <path d="M  6 60 C  60 70,  110 80,  135 95 C  142 100,  138 108,  130 108" stroke-width="3"/>

    <g fill="url(#logoGrad)" stroke="none">
      <ellipse cx="0"    cy="180" rx="4" ry="6"/>
      <ellipse cx="-35"  cy="172" rx="3" ry="5"/>
      <ellipse cx="35"   cy="172" rx="3" ry="5"/>
      <ellipse cx="-82"  cy="154" rx="3" ry="5"/>
      <ellipse cx="82"   cy="154" rx="3" ry="5"/>
      <ellipse cx="-130" cy="110" rx="3" ry="4"/>
      <ellipse cx="130"  cy="110" rx="3" ry="4"/>
    </g>
  </g>

  <!-- Wordmark -->
  <text x="240" y="595"
        font-family="-apple-system, BlinkMacSystemFont, 'Segoe UI', system-ui, sans-serif"
        font-size="72" font-weight="700" letter-spacing="-2"
        fill="#1B2B4A" text-anchor="middle">InfiniTree</text>
</svg>
